<svg id="Layer_1" data-name="Layer 1" xmlns="http://www.w3.org/2000/svg" viewBox="0 0 34 34"><defs><style>.cls-1{fill:#b7b7b7;}.cls-2{fill:none;}</style></defs><title>btn-sns-facebook</title><path class="cls-1" d="M127,86.9a17,17,0,1,0,17,17A17,17,0,0,0,127,86.9Zm4.72,15-.45,3.14H128.5V113H125V105h-2.7v-3.18H125V98.08a2.63,2.63,0,0,1,.63-1.73A3.6,3.6,0,0,1,128,95a8.58,8.58,0,0,1,3.69.17l0,2.76H130a1.39,1.39,0,0,0-1.54,1.06v2.91h3C131.82,101.85,131.76,101.89,131.76,101.89Z" transform="translate(-110.04 -86.9)"/><rect class="cls-2" width="34" height="34"/></svg>