<svg id="Layer_1" data-name="Layer 1" xmlns="http://www.w3.org/2000/svg" viewBox="0 0 34 34"><defs><style>.cls-1{fill:#b7b7b7;}.cls-2{fill:none;}</style></defs><title>Vector Smart Object6</title><path class="cls-1" d="M139,132.9a2.56,2.56,0,1,0,2.56,2.56A2.56,2.56,0,0,0,139,132.9Z" transform="translate(-120.79 -116.02)"/><path class="cls-1" d="M137.79,116a17,17,0,1,0,17,17A17,17,0,0,0,137.79,116Zm2.13,25.5a3.83,3.83,0,0,1-3.35-1.71v1.3h-4V124.52h4v6.31a5.31,5.31,0,0,1,3.39-1.56c5.4,0,5.61,6.06,5.61,6.06A5.87,5.87,0,0,1,139.92,141.52Z" transform="translate(-120.79 -116.02)"/><rect class="cls-2" width="34" height="34"/></svg>