<svg xmlns="http://www.w3.org/2000/svg" xmlns:xlink="http://www.w3.org/1999/xlink" viewBox="0 0 45 50"><defs><clipPath id="a" transform="translate(-660.25 -360.44)"><rect x="660.89" y="361.03" width="43.71" height="48.82" style="fill:none"/></clipPath></defs><title>icon-bell-01</title><g style="clip-path:url(#a)"><path d="M703.68,400.83c-5.17-2.33-5.37-12.35-5.37-12.6v-6.72a15.65,15.65,0,0,0-9.57-14.4,6.05,6.05,0,0,0-12.1,0,15.64,15.64,0,0,0-9.57,14.4v6.72c0,.25-.2,10.27-5.37,12.6a1.38,1.38,0,0,0,.56,2.63h13.11a7.7,7.7,0,0,0,2,4,7.24,7.24,0,0,0,10.57,0,7.71,7.71,0,0,0,2-4h13.1a1.38,1.38,0,0,0,.57-2.63Zm-6.81-4.8a15.06,15.06,0,0,0,2.4,4.68H666.1a15.08,15.08,0,0,0,2.41-4.68Zm-14.18-32.21a3.3,3.3,0,0,1,3.17,2.39,15.71,15.71,0,0,0-3.17-.32,15.88,15.88,0,0,0-3.18.32,3.31,3.31,0,0,1,3.18-2.39Zm-12.88,24.42v-6.73a12.88,12.88,0,1,1,25.75,0v6.74a30.35,30.35,0,0,0,.58,5H669.23a28,28,0,0,0,.58-5.05ZM682.69,407a4.81,4.81,0,0,1-4.51-3.51h9a4.8,4.8,0,0,1-4.5,3.51Zm0,0" transform="translate(-660.25 -360.44)" style="fill:#3d6889"/></g><path d="M682.69,370.56a10.71,10.71,0,0,0-10.7,10.7,1.37,1.37,0,0,0,2.74,0,8,8,0,0,1,8-8,1.37,1.37,0,0,0,0-2.74Zm0,0" transform="translate(-660.25 -360.44)" style="fill:#3d6889"/><rect width="45" height="50" style="fill:none"/></svg>