<svg xmlns="http://www.w3.org/2000/svg" xmlns:xlink="http://www.w3.org/1999/xlink" viewBox="0 0 52.95 60"><defs><style>.a{fill:none;}.b{fill:#fff;}.c{clip-path:url(#a);}.d{fill:#78c5ef;}.e{fill:#d8dce1;}.f{fill:#ff4f19;}.g{fill:#ff9600;}.h{fill:#ffd200;}.i{fill:#74d24f;}.j{fill:#d4d5d8;}</style><clipPath id="a" transform="translate(-1197.05 -263.61)"><rect class="a" x="1197.05" y="264.62" width="52.94" height="58.88"/></clipPath></defs><title>icon-chart-01</title><rect class="b" x="3.29" y="8.2" width="46.26" height="47.48"/><g class="c"><path class="d" d="M1244.71,268.91h-19.06a2.12,2.12,0,1,1-4.24,0h-19.06a5.31,5.31,0,0,0-5.3,5.3v43.84a5.3,5.3,0,0,0,5.3,5.29h42.36a5.3,5.3,0,0,0,5.3-5.29V274.21a5.31,5.31,0,0,0-5.3-5.3Zm0,48.08a1.06,1.06,0,0,1-1.06,1.06h-40.24a1.06,1.06,0,0,1-1.06-1.06V275.26a1.05,1.05,0,0,1,1.06-1.05h40.24a1.05,1.05,0,0,1,1.06,1.05Zm0,0" transform="translate(-1197.05 -263.61)"/></g><path class="e" d="M1209.76,309a1,1,0,0,1-.7-.27,1.06,1.06,0,0,1-.09-1.5l8.47-9.53a1.06,1.06,0,0,1,1.23-.26l10.65,4.84,7-17a1.06,1.06,0,0,1,2,.81l-7.42,18a1,1,0,0,1-.58.58,1,1,0,0,1-.83,0l-10.94-5-8,8.95a1,1,0,0,1-.79.36Zm0,0" transform="translate(-1197.05 -263.61)"/><path class="f" d="M1212.94,307.92a3.18,3.18,0,1,1-3.18-3.18,3.17,3.17,0,0,1,3.18,3.18Zm0,0" transform="translate(-1197.05 -263.61)"/><path class="g" d="M1221.41,298.38a3.18,3.18,0,1,1-3.17-3.17,3.17,3.17,0,0,1,3.17,3.17Zm0,0" transform="translate(-1197.05 -263.61)"/><path class="h" d="M1233.06,303.68a3.18,3.18,0,1,1-3.18-3.18,3.18,3.18,0,0,1,3.18,3.18Zm0,0" transform="translate(-1197.05 -263.61)"/><path class="i" d="M1240.48,285.68a3.18,3.18,0,1,1-3.18-3.18,3.18,3.18,0,0,1,3.18,3.18Zm0,0" transform="translate(-1197.05 -263.61)"/><path class="j" d="M1229.88,265.83h-2.69a4.21,4.21,0,0,0-7.31,0H1217a5.16,5.16,0,0,0-5.15,5.15v5.85a.92.92,0,0,0,.91.92h21.48a.92.92,0,0,0,.91-.92v-5.7a5.31,5.31,0,0,0-5.3-5.3Zm-6.35,3.78" transform="translate(-1197.05 -263.61)"/><rect class="a" width="52.94" height="60"/></svg>