<svg xmlns="http://www.w3.org/2000/svg" viewBox="0 0 42 42"><title>icon-circle-logo-youtube-01</title><circle cx="21" cy="21" r="20" style="fill:#db2929"/><path d="M304.91,299.7a3,3,0,0,0-2.13-2.14c-1.88-.5-9.39-.5-9.39-.5s-7.52,0-9.4.5a3,3,0,0,0-2.12,2.14,33.52,33.52,0,0,0,0,11.65,3,3,0,0,0,2.12,2.14c1.88.51,9.4.51,9.4.51s7.51,0,9.39-.51a3,3,0,0,0,2.13-2.14,34.18,34.18,0,0,0,0-11.65Zm-14,9.4V302l6.28,3.58Z" transform="translate(-272.39 -284.53)" style="fill:#fff"/><rect width="42" height="42" style="fill:none"/></svg>