<svg xmlns="http://www.w3.org/2000/svg" viewBox="0 0 47.73 50"><defs><style>.a{fill:#3d6889;}.b{fill:none;}</style></defs><title>icon-papers-01</title><path class="a" d="M703.33,365.42h-3.94v-3.94a1.45,1.45,0,0,0-1.45-1.45H659.7a1.45,1.45,0,0,0-1.45,1.45v40.44a1.45,1.45,0,0,0,1.45,1.45h3.93v3.94a1.45,1.45,0,0,0,1.45,1.45h38.25a1.45,1.45,0,0,0,1.45-1.45V366.87a1.45,1.45,0,0,0-1.45-1.45Zm-39.27,16.16a1.46,1.46,0,0,0-.43,1v17.87h-2.48V362.93h35.34v2.49H680.82a1.45,1.45,0,0,0-1,.42Zm15.31-11.21v10.79H668.59Zm22.51,35.49H666.53v-21.8h14.29a1.45,1.45,0,0,0,1.45-1.45V368.33h19.61Zm0,0" transform="translate(-657.65 -359.39)"/><rect class="b" width="47.73" height="50"/></svg>