<svg xmlns="http://www.w3.org/2000/svg" xmlns:xlink="http://www.w3.org/1999/xlink" viewBox="0 0 160 169.6"><defs><linearGradient id="a" x1="742.37" y1="142.35" x2="742.37" y2="300.02" gradientTransform="translate(29.91 -82.76) rotate(6.51)" gradientUnits="userSpaceOnUse"><stop offset="0" stop-color="#ff8e00"/><stop offset="1" stop-color="#ff7300"/></linearGradient><clipPath id="b" transform="translate(-662.37 -141.47)"><circle cx="742.37" cy="221.47" r="79.12" transform="translate(-20.33 85.62) rotate(-6.51)" style="fill:none"/></clipPath></defs><title>icon-circle-coinage-01</title><rect width="160" height="160" style="fill:none"/><circle cx="742.37" cy="221.47" r="79.12" transform="translate(-682.7 -55.85) rotate(-6.51)" style="fill:url(#a)"/><g style="clip-path:url(#b)"><path d="M767.15,277.47c-15.7,0-28,7.38-28,16.8s12.3,16.8,28,16.8,28-7.38,28-16.8-12.3-16.8-28-16.8Zm0,0" transform="translate(-662.37 -141.47)" style="fill:#ffd200"/><path d="M767.15,271.87c-15.7,0-28,7.38-28,16.8s12.3,16.8,28,16.8,28-7.38,28-16.8-12.3-16.8-28-16.8Zm0,0" transform="translate(-662.37 -141.47)" style="fill:#ff9600"/><path d="M767.15,266.27c-15.7,0-28,7.38-28,16.8s12.3,16.8,28,16.8,28-7.38,28-16.8-12.3-16.8-28-16.8Zm0,0" transform="translate(-662.37 -141.47)" style="fill:#ffd200"/><path d="M767.15,260.67c-15.7,0-28,7.38-28,16.8s12.3,16.8,28,16.8,28-7.38,28-16.8-12.3-16.8-28-16.8Zm0,0" transform="translate(-662.37 -141.47)" style="fill:#ff9600"/><path d="M767.15,255.07c-15.7,0-28,7.38-28,16.8s12.3,16.8,28,16.8,28-7.38,28-16.8-12.3-16.8-28-16.8Zm0,0" transform="translate(-662.37 -141.47)" style="fill:#ffd200"/><path d="M767.15,249.47c-15.7,0-28,7.38-28,16.8s12.3,16.8,28,16.8,28-7.38,28-16.8-12.3-16.8-28-16.8Zm0,0" transform="translate(-662.37 -141.47)" style="fill:#ff9600"/><path d="M739.15,294.27c0,9.42,12.3,16.8,28,16.8v-33.6c-15.7,0-28,7.38-28,16.8Zm0,0" transform="translate(-662.37 -141.47)" style="fill:#ff9600"/><path d="M739.15,288.67c0,9.42,12.3,16.8,28,16.8v-33.6c-15.7,0-28,7.38-28,16.8Zm0,0" transform="translate(-662.37 -141.47)" style="fill:#df8328"/><path d="M739.15,283.07c0,9.42,12.3,16.8,28,16.8v-33.6c-15.7,0-28,7.38-28,16.8Zm0,0" transform="translate(-662.37 -141.47)" style="fill:#ff9600"/><path d="M739.15,283.07c0,9.42,12.3,16.8,28,16.8v-33.6c-15.7,0-28,7.38-28,16.8Zm0,0" transform="translate(-662.37 -141.47)" style="fill:#ff9600"/><path d="M739.15,277.47c0,9.42,12.3,16.8,28,16.8v-33.6c-15.7,0-28,7.38-28,16.8Zm0,0" transform="translate(-662.37 -141.47)" style="fill:#df8328"/><path d="M739.15,271.87c0,9.42,12.3,16.8,28,16.8v-33.6c-15.7,0-28,7.38-28,16.8Zm0,0" transform="translate(-662.37 -141.47)" style="fill:#ff9600"/><path d="M739.15,266.27c0,9.42,12.3,16.8,28,16.8v-33.6c-15.7,0-28,7.38-28,16.8Zm0,0" transform="translate(-662.37 -141.47)" style="fill:#df8328"/><path d="M739.15,260.67c0,9.42,12.3,16.8,28,16.8v-33.6c-15.7,0-28,7.38-28,16.8Zm0,0" transform="translate(-662.37 -141.47)" style="fill:#ff9600"/><path d="M767.15,243.87c-15.7,0-28,7.38-28,16.8s12.3,16.8,28,16.8,28-7.38,28-16.8-12.3-16.8-28-16.8Zm0,0" transform="translate(-662.37 -141.47)" style="fill:#ffd200"/><path d="M767.15,238.27c-15.7,0-28,7.38-28,16.8s12.3,16.8,28,16.8,28-7.38,28-16.8-12.3-16.8-28-16.8Zm0,0" transform="translate(-662.37 -141.47)" style="fill:#ff9600"/><path d="M767.15,232.67c-15.7,0-28,7.38-28,16.8s12.3,16.8,28,16.8,28-7.38,28-16.8-12.3-16.8-28-16.8Zm0,0" transform="translate(-662.37 -141.47)" style="fill:#ffd200"/><path d="M767.15,227.07c-15.7,0-28,7.38-28,16.8s12.3,16.8,28,16.8,28-7.38,28-16.8-12.3-16.8-28-16.8Zm0,0" transform="translate(-662.37 -141.47)" style="fill:#ff9600"/><path d="M767.15,221.47c-15.7,0-28,7.38-28,16.8s12.3,16.8,28,16.8,28-7.38,28-16.8-12.3-16.8-28-16.8Zm0,0" transform="translate(-662.37 -141.47)" style="fill:#ffd200"/><path d="M739.15,260.67c0,9.42,12.3,16.8,28,16.8v-33.6c-15.7,0-28,7.38-28,16.8Zm0,0" transform="translate(-662.37 -141.47)" style="fill:#ff9600"/><path d="M739.15,255.07c0,9.42,12.3,16.8,28,16.8v-33.6c-15.7,0-28,7.38-28,16.8Zm0,0" transform="translate(-662.37 -141.47)" style="fill:#df8328"/><path d="M739.15,249.47c0,9.42,12.3,16.8,28,16.8v-33.6c-15.7,0-28,7.38-28,16.8Zm0,0" transform="translate(-662.37 -141.47)" style="fill:#ff9600"/><path d="M739.15,243.87c0,9.42,12.3,16.8,28,16.8v-33.6c-15.7,0-28,7.38-28,16.8Zm0,0" transform="translate(-662.37 -141.47)" style="fill:#df8328"/><path d="M739.15,238.27c0,9.42,12.3,16.8,28,16.8v-33.6c-15.7,0-28,7.38-28,16.8Zm0,0" transform="translate(-662.37 -141.47)" style="fill:#ff9600"/><path d="M767.15,215.87c-15.7,0-28,7.38-28,16.8s12.3,16.8,28,16.8,28-7.38,28-16.8-12.3-16.8-28-16.8Zm0,0" transform="translate(-662.37 -141.47)" style="fill:#ff9600"/><path d="M739.15,232.67c0,9.42,12.3,16.8,28,16.8v-33.6c-15.7,0-28,7.38-28,16.8Zm0,0" transform="translate(-662.37 -141.47)" style="fill:#df8328"/><path d="M767.15,210.27c-15.7,0-28,7.38-28,16.8s12.3,16.8,28,16.8,28-7.38,28-16.8-12.3-16.8-28-16.8Zm0,0" transform="translate(-662.37 -141.47)" style="fill:#ffd200"/><path d="M767.15,204.67c-15.7,0-28,7.38-28,16.8s12.3,16.8,28,16.8,28-7.38,28-16.8-12.3-16.8-28-16.8Zm0,0" transform="translate(-662.37 -141.47)" style="fill:#ff9600"/><path d="M739.15,227.07c0,9.42,12.3,16.8,28,16.8v-33.6c-15.7,0-28,7.38-28,16.8Zm0,0" transform="translate(-662.37 -141.47)" style="fill:#ff9600"/><path d="M739.15,221.47c0,9.42,12.3,16.8,28,16.8v-33.6c-15.7,0-28,7.38-28,16.8Zm0,0" transform="translate(-662.37 -141.47)" style="fill:#df8328"/><path d="M767.15,199.07c-15.7,0-28,7.38-28,16.8s12.3,16.8,28,16.8,28-7.38,28-16.8-12.3-16.8-28-16.8Zm0,0" transform="translate(-662.37 -141.47)" style="fill:#ffd200"/><path d="M767.15,193.47c-15.7,0-28,7.38-28,16.8s12.3,16.8,28,16.8,28-7.38,28-16.8-12.3-16.8-28-16.8Zm0,0" transform="translate(-662.37 -141.47)" style="fill:#ff9600"/><path d="M767.15,187.87c-15.7,0-28,7.38-28,16.8s12.3,16.8,28,16.8,28-7.38,28-16.8-12.3-16.8-28-16.8Zm0,0" transform="translate(-662.37 -141.47)" style="fill:#ffd200"/><path d="M739.15,215.87c0,9.42,12.3,16.8,28,16.8v-33.6c-15.7,0-28,7.38-28,16.8Zm0,0" transform="translate(-662.37 -141.47)" style="fill:#ff9600"/><path d="M739.15,210.27c0,9.42,12.3,16.8,28,16.8v-33.6c-15.7,0-28,7.38-28,16.8Zm0,0" transform="translate(-662.37 -141.47)" style="fill:#df8328"/><path d="M739.15,204.67c0,9.42,12.3,16.8,28,16.8v-33.6c-15.7,0-28,7.38-28,16.8Zm0,0" transform="translate(-662.37 -141.47)" style="fill:#ff9600"/><path d="M767.15,182.27c-15.7,0-28,7.38-28,16.8s12.3,16.8,28,16.8,28-7.38,28-16.8-12.3-16.8-28-16.8Zm0,0" transform="translate(-662.37 -141.47)" style="fill:#ff9600"/><path d="M739.15,199.07c0,9.42,12.3,16.8,28,16.8v-33.6c-15.7,0-28,7.38-28,16.8Zm0,0" transform="translate(-662.37 -141.47)" style="fill:#df8328"/><path d="M767.15,176.67c-15.7,0-28,7.38-28,16.8s12.3,16.8,28,16.8,28-7.38,28-16.8-12.3-16.8-28-16.8Zm0,0" transform="translate(-662.37 -141.47)" style="fill:#ffd200"/><path d="M767.15,204.67c-11.36,0-19.6-4.71-19.6-11.2s8.24-11.2,19.6-11.2,19.6,4.72,19.6,11.2-8.24,11.2-19.6,11.2Zm0-16.8c-8.67,0-14,3.27-14,5.6s5.33,5.6,14,5.6,14-3.26,14-5.6-5.33-5.6-14-5.6Zm0,0" transform="translate(-662.37 -141.47)" style="fill:#ffef43"/><path d="M716.75,277.47c-15.7,0-28,7.38-28,16.8s12.3,16.8,28,16.8,28-7.38,28-16.8-12.3-16.8-28-16.8Zm0,0" transform="translate(-662.37 -141.47)" style="fill:#ffd200"/><path d="M716.75,271.87c-15.7,0-28,7.38-28,16.8s12.3,16.8,28,16.8,28-7.38,28-16.8-12.3-16.8-28-16.8Zm0,0" transform="translate(-662.37 -141.47)" style="fill:#ff9600"/><path d="M716.75,266.27c-15.7,0-28,7.38-28,16.8s12.3,16.8,28,16.8,28-7.38,28-16.8-12.3-16.8-28-16.8Zm0,0" transform="translate(-662.37 -141.47)" style="fill:#ffd200"/><path d="M688.75,294.27c0,9.42,12.3,16.8,28,16.8v-33.6c-15.7,0-28,7.38-28,16.8Zm0,0" transform="translate(-662.37 -141.47)" style="fill:#ff9600"/><path d="M688.75,288.67c0,9.42,12.3,16.8,28,16.8v-33.6c-15.7,0-28,7.38-28,16.8Zm0,0" transform="translate(-662.37 -141.47)" style="fill:#df8328"/><path d="M688.75,283.07c0,9.42,12.3,16.8,28,16.8v-33.6c-15.7,0-28,7.38-28,16.8Zm0,0" transform="translate(-662.37 -141.47)" style="fill:#ff9600"/><path d="M716.75,260.67c-15.7,0-28,7.38-28,16.8s12.3,16.8,28,16.8,28-7.38,28-16.8-12.3-16.8-28-16.8Zm0,0" transform="translate(-662.37 -141.47)" style="fill:#ff9600"/><path d="M688.75,277.47c0,9.42,12.3,16.8,28,16.8v-33.6c-15.7,0-28,7.38-28,16.8Zm0,0" transform="translate(-662.37 -141.47)" style="fill:#df8328"/><path d="M716.75,255.07c-15.7,0-28,7.38-28,16.8s12.3,16.8,28,16.8,28-7.38,28-16.8-12.3-16.8-28-16.8Zm0,0" transform="translate(-662.37 -141.47)" style="fill:#ffd200"/><path d="M716.75,249.47c-15.7,0-28,7.38-28,16.8s12.3,16.8,28,16.8,28-7.38,28-16.8-12.3-16.8-28-16.8Zm0,0" transform="translate(-662.37 -141.47)" style="fill:#ff9600"/><path d="M688.75,271.87c0,9.42,12.3,16.8,28,16.8v-33.6c-15.7,0-28,7.38-28,16.8Zm0,0" transform="translate(-662.37 -141.47)" style="fill:#ff9600"/><path d="M688.75,266.27c0,9.42,12.3,16.8,28,16.8v-33.6c-15.7,0-28,7.38-28,16.8Zm0,0" transform="translate(-662.37 -141.47)" style="fill:#df8328"/><path d="M716.75,243.87c-15.7,0-28,7.38-28,16.8s12.3,16.8,28,16.8,28-7.38,28-16.8-12.3-16.8-28-16.8Zm0,0" transform="translate(-662.37 -141.47)" style="fill:#ffd200"/><path d="M716.75,238.27c-15.7,0-28,7.38-28,16.8s12.3,16.8,28,16.8,28-7.38,28-16.8-12.3-16.8-28-16.8Zm0,0" transform="translate(-662.37 -141.47)" style="fill:#ff9600"/><path d="M716.75,232.67c-15.7,0-28,7.38-28,16.8s12.3,16.8,28,16.8,28-7.38,28-16.8-12.3-16.8-28-16.8Zm0,0" transform="translate(-662.37 -141.47)" style="fill:#ffd200"/><path d="M688.75,260.67c0,9.42,12.3,16.8,28,16.8v-33.6c-15.7,0-28,7.38-28,16.8Zm0,0" transform="translate(-662.37 -141.47)" style="fill:#ff9600"/><path d="M688.75,255.07c0,9.42,12.3,16.8,28,16.8v-33.6c-15.7,0-28,7.38-28,16.8Zm0,0" transform="translate(-662.37 -141.47)" style="fill:#df8328"/><path d="M688.75,249.47c0,9.42,12.3,16.8,28,16.8v-33.6c-15.7,0-28,7.38-28,16.8Zm0,0" transform="translate(-662.37 -141.47)" style="fill:#ff9600"/><path d="M716.75,227.07c-15.7,0-28,7.38-28,16.8s12.3,16.8,28,16.8,28-7.38,28-16.8-12.3-16.8-28-16.8Zm0,0" transform="translate(-662.37 -141.47)" style="fill:#ff9600"/><path d="M688.75,243.87c0,9.42,12.3,16.8,28,16.8v-33.6c-15.7,0-28,7.38-28,16.8Zm0,0" transform="translate(-662.37 -141.47)" style="fill:#df8328"/><path d="M716.75,221.47c-15.7,0-28,7.38-28,16.8s12.3,16.8,28,16.8,28-7.38,28-16.8-12.3-16.8-28-16.8Zm0,0" transform="translate(-662.37 -141.47)" style="fill:#ffd200"/><path d="M716.75,249.47c-11.36,0-19.6-4.71-19.6-11.2s8.24-11.2,19.6-11.2,19.6,4.71,19.6,11.2-8.24,11.2-19.6,11.2Zm0-16.8c-8.67,0-14,3.27-14,5.6s5.33,5.6,14,5.6,14-3.26,14-5.6-5.33-5.6-14-5.6Zm0,0" transform="translate(-662.37 -141.47)" style="fill:#ffef43"/></g></svg>