<svg xmlns="http://www.w3.org/2000/svg" viewBox="0 0 25 25.4"><rect width="25" height="25.4" style="fill:none"/><path d="M-152.76,471.22a3.26,3.26,0,0,0-3.26,3.26,3.26,3.26,0,0,0,3.26,3.26,3.25,3.25,0,0,0,3.25-3.26,3.25,3.25,0,0,0-3.25-3.26" transform="translate(165.26 -461.78)" style="fill:none;stroke:#ffffff;stroke-miterlimit:10;stroke-width:1.43743206388159px"/><path d="M-141.67,473.29l-2.61-.69a8.76,8.76,0,0,0-1.16-2.78l1.36-2.34a.55.55,0,0,0-.08-.66l-1-.94a.53.53,0,0,0-.65-.09l-2.34,1.37a8.54,8.54,0,0,0-2.78-1.16l-.69-2.61a.56.56,0,0,0-.53-.41h-1.33a.56.56,0,0,0-.53.41l-.69,2.61a11.75,11.75,0,0,0-2.78,1.16l-2.34-1.37a.53.53,0,0,0-.65.09l-1,.94a.55.55,0,0,0-.08.66l1.36,2.34a8.76,8.76,0,0,0-1.16,2.78l-2.61.69a.54.54,0,0,0-.4.53V475a.72.72,0,0,0,.4.66l2.61.67a8.72,8.72,0,0,0,1.16,2.79l-1.36,2.33a.54.54,0,0,0,.08.66l1,.95a.53.53,0,0,0,.65.08l2.34-1.36a8.74,8.74,0,0,0,2.78,1.15l.69,2.62a.55.55,0,0,0,.53.4h1.33a.55.55,0,0,0,.53-.4l.69-2.62a8.74,8.74,0,0,0,2.78-1.15l2.34,1.36a.53.53,0,0,0,.65-.08l1-.95a.54.54,0,0,0,.08-.66l-1.36-2.33a8.72,8.72,0,0,0,1.16-2.79l2.61-.68a.55.55,0,0,0,.4-.53v-1.33a.54.54,0,0,0-.4-.53" transform="translate(165.26 -461.78)" style="fill:none;stroke:#ffffff;stroke-linecap:round;stroke-linejoin:round;stroke-width:1.52740001678467px"/></svg>