<svg xmlns="http://www.w3.org/2000/svg" viewBox="0 0 36 40"><title>icon-coin-01</title><path d="M1287.13,596.91c-5.22,0-9.32,2.46-9.32,5.59s4.1,5.59,9.32,5.59,9.32-2.45,9.32-5.59-4.1-5.59-9.32-5.59Zm0,0" transform="translate(-1260.75 -568.53)" style="fill:#ff9600"/><path d="M1287.13,595.05c-5.22,0-9.32,2.45-9.32,5.59s4.1,5.59,9.32,5.59,9.32-2.46,9.32-5.59-4.1-5.59-9.32-5.59Zm0,0" transform="translate(-1260.75 -568.53)" style="fill:#ffd200"/><path d="M1287.13,593.18c-5.22,0-9.32,2.46-9.32,5.59s4.1,5.59,9.32,5.59,9.32-2.45,9.32-5.59-4.1-5.59-9.32-5.59Zm0,0" transform="translate(-1260.75 -568.53)" style="fill:#ff9600"/><path d="M1277.81,602.5c0,3.14,4.1,5.59,9.32,5.59V596.91c-5.22,0-9.32,2.46-9.32,5.59Zm0,0" transform="translate(-1260.75 -568.53)" style="fill:#df8328"/><path d="M1277.81,600.64c0,3.13,4.1,5.59,9.32,5.59V595.05c-5.22,0-9.32,2.45-9.32,5.59Zm0,0" transform="translate(-1260.75 -568.53)" style="fill:#ff9600"/><path d="M1277.81,598.77c0,3.14,4.1,5.59,9.32,5.59V593.18c-5.22,0-9.32,2.46-9.32,5.59Zm0,0" transform="translate(-1260.75 -568.53)" style="fill:#df8328"/><path d="M1277.81,596.91c0,3.14,4.1,5.59,9.32,5.59V591.32c-5.22,0-9.32,2.46-9.32,5.59Zm0,0" transform="translate(-1260.75 -568.53)" style="fill:#ff9600"/><path d="M1287.13,591.32c-5.22,0-9.32,2.46-9.32,5.59s4.1,5.59,9.32,5.59,9.32-2.45,9.32-5.59-4.1-5.59-9.32-5.59Zm0,0" transform="translate(-1260.75 -568.53)" style="fill:#ffd200"/><path d="M1287.13,589.46c-5.22,0-9.32,2.45-9.32,5.59s4.1,5.59,9.32,5.59,9.32-2.46,9.32-5.59-4.1-5.59-9.32-5.59Zm0,0" transform="translate(-1260.75 -568.53)" style="fill:#ff9600"/><path d="M1287.13,587.59c-5.22,0-9.32,2.46-9.32,5.59s4.1,5.59,9.32,5.59,9.32-2.45,9.32-5.59-4.1-5.59-9.32-5.59Zm0,0" transform="translate(-1260.75 -568.53)" style="fill:#ffd200"/><path d="M1287.13,585.73c-5.22,0-9.32,2.46-9.32,5.59s4.1,5.59,9.32,5.59,9.32-2.45,9.32-5.59-4.1-5.59-9.32-5.59Zm0,0" transform="translate(-1260.75 -568.53)" style="fill:#ff9600"/><path d="M1287.13,583.87c-5.22,0-9.32,2.45-9.32,5.59s4.1,5.59,9.32,5.59,9.32-2.46,9.32-5.59-4.1-5.59-9.32-5.59Zm0,0" transform="translate(-1260.75 -568.53)" style="fill:#ffd200"/><path d="M1277.81,596.91c0,3.14,4.1,5.59,9.32,5.59V591.32c-5.22,0-9.32,2.46-9.32,5.59Zm0,0" transform="translate(-1260.75 -568.53)" style="fill:#ff9600"/><path d="M1277.81,595.05c0,3.13,4.1,5.59,9.32,5.59V589.46c-5.22,0-9.32,2.45-9.32,5.59Zm0,0" transform="translate(-1260.75 -568.53)" style="fill:#df8328"/><path d="M1277.81,593.18c0,3.14,4.1,5.59,9.32,5.59V587.59c-5.22,0-9.32,2.46-9.32,5.59Zm0,0" transform="translate(-1260.75 -568.53)" style="fill:#ff9600"/><path d="M1277.81,591.32c0,3.14,4.1,5.59,9.32,5.59V585.73c-5.22,0-9.32,2.46-9.32,5.59Zm0,0" transform="translate(-1260.75 -568.53)" style="fill:#df8328"/><path d="M1277.81,589.46c0,3.13,4.1,5.59,9.32,5.59V583.87c-5.22,0-9.32,2.45-9.32,5.59Zm0,0" transform="translate(-1260.75 -568.53)" style="fill:#ff9600"/><path d="M1287.13,582c-5.22,0-9.32,2.46-9.32,5.59s4.1,5.59,9.32,5.59,9.32-2.45,9.32-5.59-4.1-5.59-9.32-5.59Zm0,0" transform="translate(-1260.75 -568.53)" style="fill:#ff9600"/><path d="M1277.81,587.59c0,3.14,4.1,5.59,9.32,5.59V582c-5.22,0-9.32,2.46-9.32,5.59Zm0,0" transform="translate(-1260.75 -568.53)" style="fill:#df8328"/><path d="M1287.13,580.14c-5.22,0-9.32,2.46-9.32,5.59s4.1,5.59,9.32,5.59,9.32-2.45,9.32-5.59-4.1-5.59-9.32-5.59Zm0,0" transform="translate(-1260.75 -568.53)" style="fill:#ffd200"/><path d="M1287.13,578.28c-5.22,0-9.32,2.45-9.32,5.59s4.1,5.59,9.32,5.59,9.32-2.46,9.32-5.59-4.1-5.59-9.32-5.59Zm0,0" transform="translate(-1260.75 -568.53)" style="fill:#ff9600"/><path d="M1277.81,585.73c0,3.14,4.1,5.59,9.32,5.59V580.14c-5.22,0-9.32,2.46-9.32,5.59Zm0,0" transform="translate(-1260.75 -568.53)" style="fill:#ff9600"/><path d="M1277.81,583.87c0,3.13,4.1,5.59,9.32,5.59V578.28c-5.22,0-9.32,2.45-9.32,5.59Zm0,0" transform="translate(-1260.75 -568.53)" style="fill:#df8328"/><path d="M1287.13,576.41c-5.22,0-9.32,2.46-9.32,5.59s4.1,5.59,9.32,5.59,9.32-2.45,9.32-5.59-4.1-5.59-9.32-5.59Zm0,0" transform="translate(-1260.75 -568.53)" style="fill:#ffd200"/><path d="M1287.13,574.55c-5.22,0-9.32,2.46-9.32,5.59s4.1,5.59,9.32,5.59,9.32-2.45,9.32-5.59-4.1-5.59-9.32-5.59Zm0,0" transform="translate(-1260.75 -568.53)" style="fill:#ff9600"/><path d="M1287.13,572.69c-5.22,0-9.32,2.45-9.32,5.59s4.1,5.59,9.32,5.59,9.32-2.46,9.32-5.59-4.1-5.59-9.32-5.59Zm0,0" transform="translate(-1260.75 -568.53)" style="fill:#ffd200"/><path d="M1277.81,582c0,3.14,4.1,5.59,9.32,5.59V576.41c-5.22,0-9.32,2.46-9.32,5.59Zm0,0" transform="translate(-1260.75 -568.53)" style="fill:#ff9600"/><path d="M1277.81,580.14c0,3.14,4.1,5.59,9.32,5.59V574.55c-5.22,0-9.32,2.46-9.32,5.59Zm0,0" transform="translate(-1260.75 -568.53)" style="fill:#df8328"/><path d="M1277.81,578.28c0,3.13,4.1,5.59,9.32,5.59V572.69c-5.22,0-9.32,2.45-9.32,5.59Zm0,0" transform="translate(-1260.75 -568.53)" style="fill:#ff9600"/><path d="M1287.13,570.82c-5.22,0-9.32,2.46-9.32,5.59s4.1,5.59,9.32,5.59,9.32-2.45,9.32-5.59-4.1-5.59-9.32-5.59Zm0,0" transform="translate(-1260.75 -568.53)" style="fill:#ff9600"/><path d="M1277.81,576.41c0,3.14,4.1,5.59,9.32,5.59V570.82c-5.22,0-9.32,2.46-9.32,5.59Zm0,0" transform="translate(-1260.75 -568.53)" style="fill:#df8328"/><path d="M1287.13,569c-5.22,0-9.32,2.46-9.32,5.59s4.1,5.59,9.32,5.59,9.32-2.45,9.32-5.59-4.1-5.59-9.32-5.59Zm0,0" transform="translate(-1260.75 -568.53)" style="fill:#ffd200"/><path d="M1287.13,578.28c-3.78,0-6.52-1.57-6.52-3.73s2.74-3.73,6.52-3.73,6.52,1.57,6.52,3.73-2.74,3.73-6.52,3.73Zm0-5.59c-2.89,0-4.66,1.08-4.66,1.86s1.77,1.86,4.66,1.86,4.66-1.08,4.66-1.86-1.77-1.86-4.66-1.86Zm0,0" transform="translate(-1260.75 -568.53)" style="fill:#ffef43"/><path d="M1270.36,596.91c-5.22,0-9.32,2.46-9.32,5.59s4.1,5.59,9.32,5.59,9.32-2.45,9.32-5.59-4.1-5.59-9.32-5.59Zm0,0" transform="translate(-1260.75 -568.53)" style="fill:#ff9600"/><path d="M1261,602.5c0,3.14,4.1,5.59,9.32,5.59V596.91c-5.22,0-9.32,2.46-9.32,5.59Zm0,0" transform="translate(-1260.75 -568.53)" style="fill:#df8328"/><path d="M1270.36,595.05c-5.22,0-9.32,2.45-9.32,5.59s4.1,5.59,9.32,5.59,9.32-2.46,9.32-5.59-4.1-5.59-9.32-5.59Zm0,0" transform="translate(-1260.75 -568.53)" style="fill:#ffd200"/><path d="M1270.36,593.18c-5.22,0-9.32,2.46-9.32,5.59s4.1,5.59,9.32,5.59,9.32-2.45,9.32-5.59-4.1-5.59-9.32-5.59Zm0,0" transform="translate(-1260.75 -568.53)" style="fill:#ff9600"/><path d="M1261,600.64c0,3.13,4.1,5.59,9.32,5.59V595.05c-5.22,0-9.32,2.45-9.32,5.59Zm0,0" transform="translate(-1260.75 -568.53)" style="fill:#ff9600"/><path d="M1261,598.77c0,3.14,4.1,5.59,9.32,5.59V593.18c-5.22,0-9.32,2.46-9.32,5.59Zm0,0" transform="translate(-1260.75 -568.53)" style="fill:#df8328"/><path d="M1270.36,591.32c-5.22,0-9.32,2.46-9.32,5.59s4.1,5.59,9.32,5.59,9.32-2.45,9.32-5.59-4.1-5.59-9.32-5.59Zm0,0" transform="translate(-1260.75 -568.53)" style="fill:#ffd200"/><path d="M1270.36,589.46c-5.22,0-9.32,2.45-9.32,5.59s4.1,5.59,9.32,5.59,9.32-2.46,9.32-5.59-4.1-5.59-9.32-5.59Zm0,0" transform="translate(-1260.75 -568.53)" style="fill:#ff9600"/><path d="M1270.36,587.59c-5.22,0-9.32,2.46-9.32,5.59s4.1,5.59,9.32,5.59,9.32-2.45,9.32-5.59-4.1-5.59-9.32-5.59Zm0,0" transform="translate(-1260.75 -568.53)" style="fill:#ffd200"/><path d="M1261,596.91c0,3.14,4.1,5.59,9.32,5.59V591.32c-5.22,0-9.32,2.46-9.32,5.59Zm0,0" transform="translate(-1260.75 -568.53)" style="fill:#ff9600"/><path d="M1261,595.05c0,3.13,4.1,5.59,9.32,5.59V589.46c-5.22,0-9.32,2.45-9.32,5.59Zm0,0" transform="translate(-1260.75 -568.53)" style="fill:#df8328"/><path d="M1261,593.18c0,3.14,4.1,5.59,9.32,5.59V587.59c-5.22,0-9.32,2.46-9.32,5.59Zm0,0" transform="translate(-1260.75 -568.53)" style="fill:#ff9600"/><path d="M1270.36,585.73c-5.22,0-9.32,2.46-9.32,5.59s4.1,5.59,9.32,5.59,9.32-2.45,9.32-5.59-4.1-5.59-9.32-5.59Zm0,0" transform="translate(-1260.75 -568.53)" style="fill:#ff9600"/><path d="M1261,591.32c0,3.14,4.1,5.59,9.32,5.59V585.73c-5.22,0-9.32,2.46-9.32,5.59Zm0,0" transform="translate(-1260.75 -568.53)" style="fill:#df8328"/><path d="M1270.36,583.87c-5.22,0-9.32,2.45-9.32,5.59s4.1,5.59,9.32,5.59,9.32-2.46,9.32-5.59-4.1-5.59-9.32-5.59Zm0,0" transform="translate(-1260.75 -568.53)" style="fill:#ffd200"/><path d="M1270.36,593.18c-3.78,0-6.52-1.56-6.52-3.72s2.74-3.73,6.52-3.73,6.52,1.57,6.52,3.73-2.74,3.72-6.52,3.72Zm0-5.59c-2.89,0-4.66,1.09-4.66,1.87s1.77,1.86,4.66,1.86,4.66-1.08,4.66-1.86-1.77-1.87-4.66-1.87Zm0,0" transform="translate(-1260.75 -568.53)" style="fill:#ffef43"/><rect width="36" height="40" style="fill:none"/></svg>