<svg xmlns="http://www.w3.org/2000/svg" xmlns:xlink="http://www.w3.org/1999/xlink" viewBox="0 0 160 160"><defs><linearGradient id="a" x1="1378.87" y1="183.35" x2="1378.87" y2="341.02" gradientTransform="translate(38.66 -154.68) rotate(6.51)" gradientUnits="userSpaceOnUse"><stop offset="0" stop-color="#41bce6"/><stop offset="1" stop-color="#22a6db"/></linearGradient></defs><title>icon-circle-telegram-logo-01</title><circle cx="1378.87" cy="262.47" r="79.12" transform="translate(-1319.74 -24.4) rotate(-6.51)" style="fill:url(#a)"/><path d="M1417.37,228.87l-14.13,71.25s-2,4.94-7.41,2.56l-32.62-25L1351.36,272l-20-6.72s-3.06-1.09-3.36-3.46,3.46-3.65,3.46-3.65L1410.85,227S1417.37,224.12,1417.37,228.87Z" transform="translate(-1298.87 -182.47)" style="fill:#fff"/><path d="M1360.71,299.32s-1-.09-2.14-3.85-7.21-23.52-7.21-23.52l47.92-30.44s2.77-1.68,2.67,0c0,0,.5.3-1,1.68s-37.65,33.9-37.65,33.9" transform="translate(-1298.87 -182.47)" style="fill:#d2e3ef"/><path d="M1375.72,287.27,1362.82,299a2.28,2.28,0,0,1-2.11.29l2.47-21.85" transform="translate(-1298.87 -182.47)" style="fill:#b4cfe3"/><rect width="160" height="160" style="fill:none"/></svg>