<svg xmlns="http://www.w3.org/2000/svg" xmlns:xlink="http://www.w3.org/1999/xlink" viewBox="0 0 161.42 166.56"><defs><linearGradient id="a" x1="655.72" y1="162.96" x2="655.72" y2="320.63" gradientTransform="translate(31.69 -72.8) rotate(6.51)" gradientUnits="userSpaceOnUse"><stop offset="0" stop-color="#ff3f55"/><stop offset="1" stop-color="#f35"/></linearGradient><clipPath id="b" transform="translate(-574.3 -162.08)"><circle cx="655.72" cy="242.08" r="79.12" transform="translate(-23.22 75.93) rotate(-6.51)" style="fill:none"/></clipPath></defs><title>icon-circle-magnifying-glass-01</title><rect x="1.42" width="160" height="160" style="fill:none"/><circle cx="655.72" cy="242.08" r="79.12" transform="translate(-597.53 -86.15) rotate(-6.51)" style="fill:url(#a)"/><g style="clip-path:url(#b)"><rect x="619.05" y="267.21" width="28.77" height="4.62" transform="translate(-579.35 364.76) rotate(-45)" style="fill:#ece7ea"/><circle cx="95.88" cy="70.69" r="42.72" style="fill:#fff"/><circle cx="95.88" cy="70.69" r="33.57" style="fill:#d1d1d1"/><path d="M653,217.94a2.31,2.31,0,0,1-1.63-3.94A26.53,26.53,0,0,1,689,214a2.31,2.31,0,0,1-3.26,3.26,21.95,21.95,0,0,0-31,0A2.3,2.3,0,0,1,653,217.94Z" transform="translate(-574.3 -162.08)" style="fill:#fff"/><path d="M625.3,291.09l-35.63,35.63c-3.71,3.71-7.56,1.54-11.27-2.17s-5.88-7.56-2.17-11.27l35.63-35.63L622.94,280Z" transform="translate(-574.3 -162.08)" style="fill:#1b4145"/><path d="M629.64,286.75l-4.34,4.34-13.44-13.44,4.34-4.34a9.5,9.5,0,1,1,13.44,13.44Z" transform="translate(-574.3 -162.08)" style="fill:#c2b8b9"/></g></svg>