<svg xmlns="http://www.w3.org/2000/svg" xmlns:xlink="http://www.w3.org/1999/xlink" viewBox="0 0 160 160"><defs><linearGradient id="a" x1="506.5" y1="162.96" x2="507.4" y2="321.2" gradientTransform="translate(30.73 -55.93) rotate(6.51)" gradientUnits="userSpaceOnUse"><stop offset="0" stop-color="#ffd45a"/><stop offset="1" stop-color="#ffbe5a"/></linearGradient><clipPath id="b" transform="translate(-426.95 -162.08)"><circle cx="506.95" cy="242.08" r="79.12" transform="translate(-24.18 59.06) rotate(-6.51)" style="fill:none"/></clipPath></defs><title>icon-bigdata-01</title><rect width="160" height="160" style="fill:none"/><circle cx="506.95" cy="242.08" r="79.12" transform="translate(-451.13 -103.03) rotate(-6.51)" style="fill:url(#a)"/><g style="clip-path:url(#b)"><path d="M569,305H444.86a2.07,2.07,0,0,1,0-4.14H569a2.07,2.07,0,1,1,0,4.14Z" transform="translate(-426.95 -162.08)" style="fill:#e59c45"/><rect x="77.93" y="104.77" width="4.14" height="36.5" style="fill:#e59c45"/><rect x="51.81" y="21.78" width="56.39" height="88.51" style="fill:#1b4145"/><circle cx="80" cy="91.69" r="4.95" style="fill:#6fc5d6"/><circle cx="80" cy="78.44" r="2.07" style="fill:#ffd24d"/><path d="M523.31,199.58H490.59a2.07,2.07,0,1,1,0-4.14h32.72a2.07,2.07,0,1,1,0,4.14Z" transform="translate(-426.95 -162.08)" style="fill:#609399"/><path d="M523.31,226.9H490.59a2.07,2.07,0,1,1,0-4.14h32.72a2.07,2.07,0,1,1,0,4.14Z" transform="translate(-426.95 -162.08)" style="fill:#609399"/><path d="M523.31,213.24H490.59a2.07,2.07,0,1,1,0-4.14h32.72a2.07,2.07,0,1,1,0,4.14Z" transform="translate(-426.95 -162.08)" style="fill:#609399"/><path d="M524.47,297.84h-35a1.37,1.37,0,0,0-1.38,1.38v7.45a1.38,1.38,0,0,0,1.38,1.38h35a1.38,1.38,0,0,0,1.38-1.38v-7.45A1.37,1.37,0,0,0,524.47,297.84Z" transform="translate(-426.95 -162.08)" style="fill:#fff4c7"/></g></svg>