<svg xmlns="http://www.w3.org/2000/svg" xmlns:xlink="http://www.w3.org/1999/xlink" viewBox="0 0 160 160"><defs><linearGradient id="a" x1="683.22" y1="166.65" x2="683.22" y2="324.32" gradientTransform="translate(32.28 -75.9) rotate(6.51)" gradientUnits="userSpaceOnUse"><stop offset="0" stop-color="#f2f2f2"/><stop offset="1" stop-color="#e6e6e6"/></linearGradient></defs><title>icon-circle-binoculars-01</title><rect width="160" height="160" style="fill:none"/><circle cx="683.22" cy="245.78" r="79.12" transform="translate(-626.69 -86.71) rotate(-6.51)" style="fill:url(#a)"/><path d="M669,209.43a7.11,7.11,0,0,0-6.69,4.72,1.78,1.78,0,0,0,1.08,2.27,1.76,1.76,0,0,0,1.71-.34l7.44,8.95v2.13a1.78,1.78,0,0,0,3.55,0V216.52a7.1,7.1,0,0,0-7.09-7.09Zm0,0" transform="translate(-603.22 -165.78)" style="fill:#93b1c6"/><path d="M663.72,213a12.38,12.38,0,0,0-8.72,3.59l-22.73,24.82,2.61,2.39.62-.67,37.08,10.17v.48a1.78,1.78,0,1,0,3.55,0V225.38A12.43,12.43,0,0,0,663.72,213Zm0,0" transform="translate(-603.22 -165.78)" style="fill:#c5dbed"/><path d="M697.41,209.43a7.11,7.11,0,0,1,6.69,4.72,1.79,1.79,0,0,1-1.08,2.27,1.76,1.76,0,0,1-1.71-.34L693.86,225v2.13a1.77,1.77,0,0,1-3.54,0V216.52a7.1,7.1,0,0,1,7.09-7.09Zm0,0" transform="translate(-603.22 -165.78)" style="fill:#93b1c6"/><path d="M702.73,213a12.38,12.38,0,0,1,8.72,3.59l22.73,24.82-2.62,2.39-.61-.67-37.09,10.17v.48a1.77,1.77,0,1,1-3.54,0V225.38A12.43,12.43,0,0,1,702.73,213Zm0,0" transform="translate(-603.22 -165.78)" style="fill:#c5dbed"/><path d="M670.81,257.3a19.51,19.51,0,1,1-19.5-19.5,19.51,19.51,0,0,1,19.5,19.5Zm0,0" transform="translate(-603.22 -165.78)" style="fill:#b0dcf4"/><path d="M669,234.25h28.64a18.56,18.56,0,0,0-5.59,13.3v6.2H674.36v-6.2a18.56,18.56,0,0,0-5.59-13.3" transform="translate(-603.22 -165.78)" style="fill:#709ab7"/><path d="M662,253.75a7.1,7.1,0,1,1-7.1-7.09,7.1,7.1,0,0,1,7.1,7.09Zm0,0" transform="translate(-603.22 -165.78)" style="fill:#fff"/><path d="M734.64,257.3a19.5,19.5,0,1,1-19.5-19.5,19.51,19.51,0,0,1,19.5,19.5Zm0,0" transform="translate(-603.22 -165.78)" style="fill:#b0dcf4"/><path d="M715.14,232.48A24.82,24.82,0,1,0,740,257.3a24.84,24.84,0,0,0-24.83-24.82Zm0,42.55a17.73,17.73,0,1,1,17.73-17.73A17.75,17.75,0,0,1,715.14,275Zm0,0" transform="translate(-603.22 -165.78)" style="fill:#83a9c9"/><path d="M725.78,253.75a7.1,7.1,0,1,1-7.09-7.09,7.1,7.1,0,0,1,7.09,7.09Zm0,0" transform="translate(-603.22 -165.78)" style="fill:#fff"/><rect x="65.81" y="64.93" width="28.37" height="3.55" style="fill:#b1cbdd"/><path d="M651.31,232.48a24.82,24.82,0,1,0,24.82,24.82,24.85,24.85,0,0,0-24.82-24.82Zm0,42.55A17.73,17.73,0,1,1,669,257.3,17.75,17.75,0,0,1,651.31,275Zm0,0" transform="translate(-603.22 -165.78)" style="fill:#83a9c9"/></svg>