<svg xmlns="http://www.w3.org/2000/svg" xmlns:xlink="http://www.w3.org/1999/xlink" viewBox="0 0 160 160"><defs><linearGradient id="a" x1="475.46" y1="142.35" x2="475.46" y2="300.02" gradientTransform="translate(28.18 -52.49) rotate(6.51)" gradientUnits="userSpaceOnUse"><stop offset="0" stop-color="#5abb1f"/><stop offset="1" stop-color="#44a912"/></linearGradient></defs><title>icon-talk-01</title><rect width="160" height="160" style="fill:none"/><circle cx="475.46" cy="221.47" r="79.12" transform="translate(-417.51 -86.12) rotate(-6.51)" style="fill:url(#a)"/><path d="M525.81,219.33c0-22.09-22.54-40-50.35-40s-50.36,17.9-50.36,40c0,19.73,18,36.12,41.67,39.39h-.08a25,25,0,0,1-6.87,21.62,24.69,24.69,0,0,0,24.39-21.61h-.07C507.81,255.46,525.81,239.06,525.81,219.33Z" transform="translate(-395.46 -141.47)" style="fill:#ffd24d"/><circle cx="62.78" cy="77.86" r="3.37" style="fill:#fff"/><circle cx="97.21" cy="77.86" r="3.37" style="fill:#fff"/><circle cx="80" cy="77.86" r="3.37" style="fill:#fff"/></svg>