<svg xmlns="http://www.w3.org/2000/svg" viewBox="0 0 50 48.93"><defs><style>.a{fill:#fff;}.b{fill:none;}</style></defs><title>icon-send-mail-01</title><path class="a" d="M1126.45,344.55h-45.08a1.66,1.66,0,0,0-1.66,1.66v31.12a1.65,1.65,0,0,0,1.66,1.65h45.08a1.65,1.65,0,0,0,1.65-1.65V346.21a1.65,1.65,0,0,0-1.65-1.66Zm-4.23,3.31-18.31,17-18.32-17ZM1083,350l6.57,6.08-6.57,6.21Zm41.77,25.68H1083v-8.84l.06-.05,8.94-8.46,10.76,10a1.63,1.63,0,0,0,2.25,0l10.77-10,9,8.52Zm0-13.39-6.56-6.21,6.56-6.08Zm0,0" transform="translate(-1078.91 -344.03)"/><rect class="b" width="50" height="48.93"/><path class="a" d="M1109.37,386l-5,6a.59.59,0,0,1-.89,0l-5-6a.58.58,0,0,1,.45-1h10A.58.58,0,0,1,1109.37,386Z" transform="translate(-1078.91 -344.03)"/></svg>