<svg xmlns="http://www.w3.org/2000/svg" viewBox="0 0 50 50"><title>icon-circle-link-01</title><path d="M-68.38,107a23.75,23.75,0,0,0-23.75,23.75A23.75,23.75,0,0,0-68.38,154.5a23.75,23.75,0,0,0,23.75-23.75A23.75,23.75,0,0,0-68.38,107Zm9.94,25.56-11.25,11.25a2.56,2.56,0,0,1-1.81.75,2.56,2.56,0,0,1-1.81-.75,2.56,2.56,0,0,1,0-3.62l9.44-9.44-9.44-9.44a2.56,2.56,0,0,1,0-3.62,2.56,2.56,0,0,1,3.62,0l11.25,11.25A2.56,2.56,0,0,1-58.44,132.56Z" transform="translate(93.38 -105.75)" style="fill:#fff"/><rect width="50" height="50" style="fill:none"/></svg>