<svg xmlns="http://www.w3.org/2000/svg" xmlns:xlink="http://www.w3.org/1999/xlink" viewBox="0 0 56.92 50"><defs><style>.a{fill:none;}.b{clip-path:url(#a);}.c{fill:#3d6889;}</style><clipPath id="a" transform="translate(-653.51 -359.23)"><rect class="a" x="654.21" y="359.67" width="55.52" height="49.12"/></clipPath></defs><title>icon-folders-01</title><g class="b"><path class="c" d="M703.88,364.57H689.46a5.82,5.82,0,0,0-5.74-4.9h-17a5.82,5.82,0,0,0-5.82,5.81v1.4H660a5.83,5.83,0,0,0-5.82,5.82V407a1.66,1.66,0,0,0,1.66,1.66h45.44A1.66,1.66,0,0,0,703,407v-5.55H708a1.66,1.66,0,0,0,1.66-1.66V370.38a5.82,5.82,0,0,0-5.81-5.81Zm-21.14,7.21a5.83,5.83,0,0,0-5.74-4.9H664.26v-1.4a2.49,2.49,0,0,1,2.49-2.49h17a2.49,2.49,0,0,1,2.49,2.49v.75a1.66,1.66,0,0,0,1.66,1.66h16a2.5,2.5,0,0,1,2.49,2.49v27.71H703V377.6a5.83,5.83,0,0,0-5.82-5.82Zm16.91,33.52H657.53V372.7a2.49,2.49,0,0,1,2.5-2.49h17a2.49,2.49,0,0,1,2.49,2.49v.74a1.66,1.66,0,0,0,1.66,1.67h16a2.49,2.49,0,0,1,2.5,2.49Zm0,0" transform="translate(-653.51 -359.23)"/></g><rect class="a" width="56.92" height="50"/></svg>