<svg xmlns="http://www.w3.org/2000/svg" viewBox="0 0 324.39 50"><title>logo-research-arum-01-en-color</title><circle cx="62.06" cy="25" r="8.68" style="fill:none"/><path d="M1094.37,2537.34a24.53,24.53,0,0,0-17.51,7.32,25.23,25.23,0,0,1,0,34.55,24.59,24.59,0,1,0,17.51-41.87Zm0,33.28a8.69,8.69,0,1,1,8.68-8.68A8.68,8.68,0,0,1,1094.37,2570.62Z" transform="translate(-1032.31 -2536.94)" style="fill:#1765ad"/><path d="M1072.28,2575.83a20.89,20.89,0,0,0,0-27.79,20.41,20.41,0,0,0-2.61-2.48,27.95,27.95,0,0,0,0,32.75A20.41,20.41,0,0,0,1072.28,2575.83Z" transform="translate(-1032.31 -2536.94)" style="fill:#36ade8"/><path d="M1075.21,2545.72a23.82,23.82,0,1,0,6.37,16.22A23.82,23.82,0,0,0,1075.21,2545.72Zm4.46,16.22a22,22,0,1,1-5.73-14.78A21.85,21.85,0,0,1,1079.67,2561.94Z" transform="translate(-1032.31 -2536.94)" style="fill:#ff4545"/><path d="M1141,2573.6l-5-8.84h-3.55v8.84H1129v-21.9h7.18c4.52,0,7.91,1.6,7.91,6.34a6.1,6.1,0,0,1-4.58,6.28l5.36,9.28Zm-8.52-11.61h3.31c3.18,0,4.91-1.3,4.91-3.95s-1.73-3.58-4.91-3.58h-3.31Z" transform="translate(-1032.31 -2536.94)" style="fill:#333"/><path d="M1147.05,2565.45c0-5.33,3.63-8.63,7.47-8.63,4.34,0,6.67,3.12,6.67,7.76a8.8,8.8,0,0,1-.15,1.73h-10.63c.27,3.13,2.23,5,5.06,5a7,7,0,0,0,3.9-1.22l1.19,2.17A9.87,9.87,0,0,1,1155,2574C1150.59,2574,1147.05,2570.83,1147.05,2565.45Zm11.19-1.49c0-2.83-1.28-4.47-3.66-4.47-2.06,0-3.87,1.58-4.2,4.47Z" transform="translate(-1032.31 -2536.94)" style="fill:#333"/><path d="M1163.3,2571.73l1.61-2.21a7.18,7.18,0,0,0,4.64,1.88c2,0,2.89-1,2.89-2.2,0-1.49-1.85-2.15-3.64-2.83-2.17-.83-4.67-2-4.67-4.76s2.2-4.79,5.81-4.79a8.61,8.61,0,0,1,5.32,1.93l-1.6,2.11a6.18,6.18,0,0,0-3.66-1.42c-1.79,0-2.62.89-2.62,2,0,1.4,1.69,1.93,3.48,2.59,2.29.86,4.82,1.87,4.82,5,0,2.74-2.17,5-6.22,5A10.07,10.07,0,0,1,1163.3,2571.73Z" transform="translate(-1032.31 -2536.94)" style="fill:#333"/><path d="M1178.15,2565.45c0-5.33,3.63-8.63,7.47-8.63,4.35,0,6.67,3.12,6.67,7.76a8.8,8.8,0,0,1-.15,1.73h-10.63c.27,3.13,2.24,5,5.06,5a7,7,0,0,0,3.9-1.22l1.19,2.17a9.86,9.86,0,0,1-5.53,1.73C1181.69,2574,1178.15,2570.83,1178.15,2565.45Zm11.19-1.49c0-2.83-1.28-4.47-3.66-4.47-2,0-3.87,1.58-4.2,4.47Z" transform="translate(-1032.31 -2536.94)" style="fill:#333"/><path d="M1195.17,2569.26c0-3.51,3-5.33,9.8-6.07,0-1.91-.72-3.58-3.13-3.58a9,9,0,0,0-4.73,1.67l-1.28-2.32a12.57,12.57,0,0,1,6.61-2.14c4.07,0,6,2.59,6,6.93v9.85h-2.8l-.3-1.87h-.09a8.1,8.1,0,0,1-5.2,2.26A4.53,4.53,0,0,1,1195.17,2569.26Zm9.8.12v-4c-4.86.59-6.49,1.81-6.49,3.66,0,1.61,1.1,2.26,2.56,2.26A5.77,5.77,0,0,0,1205,2569.38Z" transform="translate(-1032.31 -2536.94)" style="fill:#333"/><path d="M1213.24,2557.23h2.8l.27,2.95h.08c1.17-2.11,2.89-3.36,4.65-3.36a4.16,4.16,0,0,1,1.84.35l-.62,3a4.82,4.82,0,0,0-1.64-.27c-1.34,0-2.95.92-4,3.51v10.21h-3.39Z" transform="translate(-1032.31 -2536.94)" style="fill:#333"/><path d="M1224.25,2565.45c0-5.48,3.78-8.63,8.1-8.63a7,7,0,0,1,4.79,1.87l-1.7,2.23a4.29,4.29,0,0,0-2.94-1.28c-2.74,0-4.71,2.33-4.71,5.81s1.88,5.74,4.62,5.74a5.56,5.56,0,0,0,3.57-1.49l1.4,2.27a8,8,0,0,1-5.3,2C1227.65,2574,1224.25,2570.86,1224.25,2565.45Z" transform="translate(-1032.31 -2536.94)" style="fill:#333"/><path d="M1240.8,2549.88h3.39v6.28l-.12,3.25a7.63,7.63,0,0,1,5.3-2.59c3.48,0,5,2.32,5,6.48v10.3H1251v-9.88c0-2.83-.83-4-2.77-4-1.52,0-2.56.78-4,2.23v11.61h-3.39Z" transform="translate(-1032.31 -2536.94)" style="fill:#333"/><path d="M1263.64,2573.79l7.55-24.15h6.56l7.55,24.15h-5.78l-1.48-5.74h-7.37l-1.48,5.74Zm8.74-12.23-.6,2.23h5.15l-.56-2.23c-.34-1.2-.67-2.49-1-3.85s-.65-2.66-1-3.92h-.15c-.29,1.28-.59,2.6-.9,3.94S1272.72,2560.36,1272.38,2561.56Z" transform="translate(-1032.31 -2536.94)"/><path d="M1287.93,2573.79v-24.15h8.7a16.54,16.54,0,0,1,3.61.37,8.26,8.26,0,0,1,3,1.24,6.2,6.2,0,0,1,2,2.32,7.86,7.86,0,0,1,.74,3.59,7.65,7.65,0,0,1-1.17,4.39,7.18,7.18,0,0,1-3.13,2.57l5.48,9.67H1301l-4.63-8.71h-3v8.71Zm5.44-13h2.82a5.13,5.13,0,0,0,3.28-.91,3.23,3.23,0,0,0,1.12-2.68,2.68,2.68,0,0,0-1.12-2.48,6.27,6.27,0,0,0-3.28-.71h-2.82Z" transform="translate(-1032.31 -2536.94)"/><path d="M1319.27,2574.23q-4.71,0-7.18-2.78t-2.49-8.85v-13h5.49v13.52c0,2.37.35,4,1.07,5a3.66,3.66,0,0,0,3.11,1.41,3.78,3.78,0,0,0,3.15-1.41q1.11-1.41,1.11-5v-13.52h5.26v13q0,6.08-2.43,8.85T1319.27,2574.23Z" transform="translate(-1032.31 -2536.94)"/><path d="M1333,2573.79v-24.15h6s5,14.44,5.29,15.18h.15l5.19-15.18h5.92v24.15h-4.68v-17.08l-5.13,15h-3l-5.1-15v17.08Z" transform="translate(-1032.31 -2536.94)"/><rect width="324.39" height="50" style="fill:none"/></svg>