<svg xmlns="http://www.w3.org/2000/svg" viewBox="0 0 222.34 50"><title>logo-research-arum-01-kr-mono</title><path d="M947,2115.82c0,3.74-4.23,4.67-6.31,4.67h-6.89a1,1,0,0,1-.7-.2,1,1,0,0,1-.21-.76v-4.63h8.81v-8.72q0-.93-1-.93H929.71V2108h8.8v4.17h-8.8V2120a3.24,3.24,0,0,0,3.25,3.25h4.12c6.38,0,8.88-2.3,9.87-4.19V2127c0,.22.15.39.45.49a3.61,3.61,0,0,0,1.13.16,3.43,3.43,0,0,0,1.11-.16c.29-.1.44-.27.44-.49v-23.22H947Z" transform="translate(-834.33 -2091.13)" style="fill:#666"/><path d="M971.45,2110.75h-5.19v2.74h5.19V2127c0,.22.15.39.46.49a3.54,3.54,0,0,0,1.12.16,3.46,3.46,0,0,0,1.12-.16c.29-.1.44-.27.44-.49v-23.22h-3.14Z" transform="translate(-834.33 -2091.13)" style="fill:#666"/><path d="M966.57,2117.37a19.38,19.38,0,0,1-1.93-2.57,15.87,15.87,0,0,1-1.42-2.86,8.46,8.46,0,0,1-.57-3v-3.53h-3.36V2109a9.61,9.61,0,0,1-.49,3.09,13.25,13.25,0,0,1-1.35,2.85,18.42,18.42,0,0,1-2,2.63,30.77,30.77,0,0,1-2.46,2.38.38.38,0,0,0-.09.57,10.22,10.22,0,0,0,.69.84,2.71,2.71,0,0,0,.9.75.67.67,0,0,0,.65-.1,20.75,20.75,0,0,0,1.68-1.48,23.8,23.8,0,0,0,1.72-1.86c.55-.67,1.07-1.36,1.54-2.06a11.5,11.5,0,0,0,1.12-2.13,13.81,13.81,0,0,0,1.08,2,20.66,20.66,0,0,0,1.41,2c.51.63,1,1.22,1.56,1.76a17.22,17.22,0,0,0,1.54,1.41.48.48,0,0,0,.61,0,4.74,4.74,0,0,0,.77-.69,3.74,3.74,0,0,0,.64-.89.46.46,0,0,0-.13-.55C968,2118.88,967.29,2118.17,966.57,2117.37Z" transform="translate(-834.33 -2091.13)" style="fill:#666"/><path d="M996,2127c0,.22.15.39.45.49a3.61,3.61,0,0,0,1.13.16,3.43,3.43,0,0,0,1.11-.16c.3-.1.44-.27.44-.49v-23.22H996Z" transform="translate(-834.33 -2091.13)" style="fill:#666"/><path d="M991.63,2119c-.42-.46-.83-.93-1.23-1.42s-.77-1-1.11-1.41a11.64,11.64,0,0,1-.81-1.16c-.22-.34-.42-.65-.59-.94a7.83,7.83,0,0,1-.45-.92,5.37,5.37,0,0,1-.3-1,8.22,8.22,0,0,1-.1-1.31v-.57h4.83c.45,0,.68-.44.68-1.32s-.23-1.41-.68-1.41h-4.94V2104h-3.24v3.59H978.3v2.73h5.39v.57a6.73,6.73,0,0,1-.6,2.72,15,15,0,0,1-3.28,4.82c-.73.73-1.43,1.39-2.1,2a.36.36,0,0,0,0,.54,9.52,9.52,0,0,0,.7.84,3.43,3.43,0,0,0,.86.77.58.58,0,0,0,.58-.14c.58-.47,1.16-1,1.72-1.54s1.1-1.13,1.61-1.74.86-1.08,1.27-1.68a14.91,14.91,0,0,0,1.1-1.84,10.41,10.41,0,0,0,1,1.72,21.82,21.82,0,0,0,1.35,1.77c.49.59,1,1.15,1.51,1.68s1,1,1.48,1.4a.55.55,0,0,0,.58.11,2.28,2.28,0,0,0,.78-.65,5.93,5.93,0,0,0,.65-.87.4.4,0,0,0-.09-.54Q992.26,2119.72,991.63,2119Z" transform="translate(-834.33 -2091.13)" style="fill:#666"/><path d="M1011.62,2115.12a6.14,6.14,0,0,0,2.07-1.31,5.75,5.75,0,0,0,1.36-1.92,5.67,5.67,0,0,0,.48-2.32,5.77,5.77,0,0,0-.48-2.32,5.89,5.89,0,0,0-1.36-1.93,6.47,6.47,0,0,0-2.07-1.31,7.13,7.13,0,0,0-2.67-.48,7.26,7.26,0,0,0-2.68.48,6.26,6.26,0,0,0-2.07,1.31,6.14,6.14,0,0,0-1.34,1.93,5.77,5.77,0,0,0-.48,2.32,5.67,5.67,0,0,0,.48,2.32,6.07,6.07,0,0,0,3.41,3.23,7.06,7.06,0,0,0,2.68.48A6.94,6.94,0,0,0,1011.62,2115.12Zm-6.14-5.55a3.37,3.37,0,0,1,.92-2.39,3.85,3.85,0,0,1,5.11,0,3.36,3.36,0,0,1-2.56,5.74,3.24,3.24,0,0,1-3.47-3.35Z" transform="translate(-834.33 -2091.13)" style="fill:#666"/><path d="M1023,2103.44h-3.13v12.25q0,.32.42.48a3.31,3.31,0,0,0,1.16.17,3.87,3.87,0,0,0,1.1-.14q.45-.15.45-.51v-4.94h4.15V2108H1023Z" transform="translate(-834.33 -2091.13)" style="fill:#666"/><path d="M1023,2126.86h-12.5a.62.62,0,0,1-.62-.62v-1.66h12.92v-6.35a.86.86,0,0,0-.18-.64,1.12,1.12,0,0,0-.67-.15h-15.2V2120h12.92v2H1006.7v4.17a3.24,3.24,0,0,0,3.24,3.25h13a.55.55,0,0,0,.48-.27,2.07,2.07,0,0,0,.17-1C1023.6,2127.29,1023.38,2126.86,1023,2126.86Z" transform="translate(-834.33 -2091.13)" style="fill:#666"/><path d="M1051.15,2115.48h-23.59v2.68h23.59a.55.55,0,0,0,.48-.31,2.41,2.41,0,0,0,.17-1C1051.8,2115.92,1051.58,2115.48,1051.15,2115.48Z" transform="translate(-834.33 -2091.13)" style="fill:#666"/><path d="M1031.09,2126.19a3.24,3.24,0,0,0,3.24,3.24h12a1.61,1.61,0,0,0,1.29-.48,2,2,0,0,0,.41-1.35V2120h-16.93Zm3.13-3.48h10.66v4h-9.76a1.06,1.06,0,0,1-.69-.18,1,1,0,0,1-.21-.75Z" transform="translate(-834.33 -2091.13)" style="fill:#666"/><path d="M1034.86,2112.68a6.9,6.9,0,0,0,2.17,1.08,9,9,0,0,0,5,0,7,7,0,0,0,2.17-1.08,5.27,5.27,0,0,0,1.52-1.76,5.42,5.42,0,0,0,0-4.88,5.37,5.37,0,0,0-1.52-1.76,7,7,0,0,0-2.17-1.08,9,9,0,0,0-5,0,6.9,6.9,0,0,0-2.17,1.08,5.4,5.4,0,0,0-1.53,1.76,5.42,5.42,0,0,0,0,4.88A5.3,5.3,0,0,0,1034.86,2112.68Zm1.9-6.36a3.8,3.8,0,0,1,2.76-.89,5,5,0,0,1,1.65.24,3.14,3.14,0,0,1,1.16.67,2.62,2.62,0,0,1,.69,1,3.09,3.09,0,0,1,0,2.34,2.74,2.74,0,0,1-.69,1,3.26,3.26,0,0,1-1.16.66,5,5,0,0,1-1.65.24,3.8,3.8,0,0,1-2.76-.89,3,3,0,0,1,0-4.32Z" transform="translate(-834.33 -2091.13)" style="fill:#666"/><circle cx="62.06" cy="25" r="8.68" style="fill:none"/><path d="M896.39,2091.54a24.5,24.5,0,0,0-17.5,7.32,25.26,25.26,0,0,1,0,34.55,24.59,24.59,0,1,0,17.5-41.87Zm0,33.28a8.69,8.69,0,1,1,8.68-8.69A8.69,8.69,0,0,1,896.39,2124.82Z" transform="translate(-834.33 -2091.13)" style="fill:#666"/><path d="M874.31,2130a20.92,20.92,0,0,0,0-27.79,22,22,0,0,0-2.62-2.49,28,28,0,0,0,0,32.76A21.18,21.18,0,0,0,874.31,2130Z" transform="translate(-834.33 -2091.13)" style="fill:#666"/><path d="M877.24,2099.92a23.82,23.82,0,1,0,6.37,16.21A23.82,23.82,0,0,0,877.24,2099.92Zm4.46,16.21a22,22,0,1,1-5.73-14.77A21.91,21.91,0,0,1,881.7,2116.13Z" transform="translate(-834.33 -2091.13)" style="fill:#666"/><rect width="222.34" height="50" style="fill:none"/></svg>