<svg xmlns="http://www.w3.org/2000/svg" viewBox="0 0 140 115.86"><defs><style>.a{fill:#fff;}.b{fill:none;}</style></defs><title>logo-telegram-01</title><path class="a" d="M1129.21,417.89l82.94-34.18c8.19-3.56,35.95-14.95,35.95-14.95s12.82-5,11.75,7.12c-.36,5-3.2,22.43-6,41.29l-8.9,55.89s-.71,8.19-6.76,9.61-16-5-17.8-6.41c-1.43-1.07-26.7-17.08-35.95-24.91-2.49-2.14-5.34-6.41.35-11.4,12.82-11.74,28.12-26.34,37.38-35.59,4.27-4.27,8.54-14.24-9.26-2.14L1162.67,436s-5.69,3.56-16.37.35-23.14-7.47-23.14-7.47-8.54-5.34,6-11Z" transform="translate(-1120.3 -367.38)"/><rect class="b" width="140" height="115.86"/></svg>