<svg xmlns="http://www.w3.org/2000/svg" viewBox="0 0 197.53 45"><title>logo-research-arum-01-kr-color</title><path d="M3344.15-400c0,3.42-3.87,4.27-5.77,4.27h-6.31a.91.91,0,0,1-.63-.18.94.94,0,0,1-.2-.7v-4.24h8.06v-8c0-.57-.31-.85-.91-.85h-10v2.5h8v3.82h-8v7.16a3,3,0,0,0,3,3h3.77c5.83,0,8.13-2.1,9-3.82v7.22c0,.21.14.36.41.46a3.37,3.37,0,0,0,1,.14,3.17,3.17,0,0,0,1-.14c.27-.1.4-.25.4-.46v-21.24h-2.86Z" transform="translate(-3242.53 422.21)"/><path d="M3366.56-404.63h-4.74v2.5h4.74v12.31c0,.21.14.36.42.46a3.33,3.33,0,0,0,1,.14,3.26,3.26,0,0,0,1-.14c.26-.1.4-.25.4-.46v-21.24h-2.87Z" transform="translate(-3242.53 422.21)"/><path d="M3362.1-398.58a17,17,0,0,1-1.77-2.35,14.21,14.21,0,0,1-1.3-2.62,7.63,7.63,0,0,1-.52-2.76v-3.22h-3.07v3.28a8.86,8.86,0,0,1-.45,2.82,12.44,12.44,0,0,1-1.24,2.61,16.39,16.39,0,0,1-1.85,2.4,28.86,28.86,0,0,1-2.24,2.18.34.34,0,0,0-.09.51,9,9,0,0,0,.63.78,2.46,2.46,0,0,0,.83.68.58.58,0,0,0,.59-.09c.48-.38,1-.83,1.54-1.35a21.66,21.66,0,0,0,1.57-1.71,20.93,20.93,0,0,0,1.41-1.88,10.18,10.18,0,0,0,1-1.95,11.91,11.91,0,0,0,1,1.86,20.84,20.84,0,0,0,1.29,1.79c.47.58.94,1.12,1.43,1.62a15.93,15.93,0,0,0,1.41,1.29.44.44,0,0,0,.55,0,4.05,4.05,0,0,0,.71-.63,3,3,0,0,0,.58-.82.42.42,0,0,0-.11-.5C3363.39-397.2,3362.75-397.85,3362.1-398.58Z" transform="translate(-3242.53 422.21)"/><path d="M3389-389.82c0,.21.14.36.41.46a3.37,3.37,0,0,0,1,.14,3.17,3.17,0,0,0,1-.14c.27-.1.4-.25.4-.46v-21.24H3389Z" transform="translate(-3242.53 422.21)"/><path d="M3385-397c-.39-.43-.76-.86-1.12-1.31s-.71-.88-1-1.29a9.19,9.19,0,0,1-.74-1.06c-.21-.31-.39-.59-.54-.86a6.52,6.52,0,0,1-.41-.84,4.66,4.66,0,0,1-.28-.94,7,7,0,0,1-.09-1.2v-.52h4.42c.41,0,.62-.4.62-1.21s-.21-1.29-.62-1.29h-4.52v-3.28h-3v3.28h-4.93v2.5h4.93v.52a6.29,6.29,0,0,1-.54,2.49,14.56,14.56,0,0,1-1.29,2.36,13.46,13.46,0,0,1-1.72,2.05c-.66.66-1.3,1.27-1.92,1.82a.33.33,0,0,0,0,.49,9.5,9.5,0,0,0,.64.78,3,3,0,0,0,.79.69.49.49,0,0,0,.53-.13c.53-.43,1.06-.9,1.57-1.4s1-1,1.47-1.59a18.76,18.76,0,0,0,1.16-1.54,12.58,12.58,0,0,0,1-1.69,10.43,10.43,0,0,0,.9,1.58c.38.55.8,1.09,1.24,1.62s.91,1,1.38,1.54.93.92,1.36,1.28a.5.5,0,0,0,.53.1,2.38,2.38,0,0,0,.71-.59,5.51,5.51,0,0,0,.59-.8.36.36,0,0,0-.08-.49C3385.75-396.28,3385.41-396.63,3385-397Z" transform="translate(-3242.53 422.21)"/><path d="M3403.3-400.63a5.7,5.7,0,0,0,1.9-1.2,5.48,5.48,0,0,0,1.24-1.75,5.31,5.31,0,0,0,.44-2.13,5.3,5.3,0,0,0-.44-2.12,5.45,5.45,0,0,0-1.24-1.77,6,6,0,0,0-1.9-1.2,6.53,6.53,0,0,0-2.43-.44,6.69,6.69,0,0,0-2.46.44,5.88,5.88,0,0,0-1.89,1.2,5.42,5.42,0,0,0-1.23,1.77,5.3,5.3,0,0,0-.44,2.12,5.31,5.31,0,0,0,.44,2.13,5.45,5.45,0,0,0,1.23,1.75,5.56,5.56,0,0,0,1.89,1.2,6.69,6.69,0,0,0,2.46.44A6.53,6.53,0,0,0,3403.3-400.63Zm-5.61-5.08a3.05,3.05,0,0,1,.84-2.18,3,3,0,0,1,2.34-.89,3,3,0,0,1,2.33.89,3.05,3.05,0,0,1,.84,2.18,3.07,3.07,0,0,1-.84,2.18,3.07,3.07,0,0,1-2.33.89,3.07,3.07,0,0,1-2.34-.89A3.07,3.07,0,0,1,3397.69-405.71Z" transform="translate(-3242.53 422.21)"/><path d="M3413.74-411.31h-2.86v11.2c0,.19.13.33.39.44a3,3,0,0,0,1.05.15,3.26,3.26,0,0,0,1-.13c.28-.08.41-.24.41-.46v-4.52h3.8v-2.48h-3.8Z" transform="translate(-3242.53 422.21)"/><path d="M3413.67-389.89h-11.44a.57.57,0,0,1-.56-.57V-392h11.82v-5.81a.76.76,0,0,0-.17-.58.94.94,0,0,0-.61-.14H3398.8v2.35h11.82v1.83H3398.8v3.82a3,3,0,0,0,3,3h11.9a.51.51,0,0,0,.44-.25,1.93,1.93,0,0,0,.15-.92C3414.26-389.5,3414.06-389.89,3413.67-389.89Z" transform="translate(-3242.53 422.21)"/><path d="M3439.46-400.31h-21.57v2.46h21.57a.48.48,0,0,0,.44-.29,2,2,0,0,0,.16-.95C3440.06-399.9,3439.86-400.31,3439.46-400.31Z" transform="translate(-3242.53 422.21)"/><path d="M3421.11-390.51a3,3,0,0,0,3,3h11a1.47,1.47,0,0,0,1.17-.44,1.87,1.87,0,0,0,.38-1.24v-6.92h-15.49Zm2.87-3.18h9.75V-390h-8.93a1,1,0,0,1-.63-.16.92.92,0,0,1-.19-.69Z" transform="translate(-3242.53 422.21)"/><path d="M3424.56-402.86a6.27,6.27,0,0,0,2,1,8.12,8.12,0,0,0,2.31.34,8.17,8.17,0,0,0,2.31-.34,6.22,6.22,0,0,0,2-1,5.05,5.05,0,0,0,1.4-1.61,4.63,4.63,0,0,0,.53-2.24,4.62,4.62,0,0,0-.53-2.23,5.05,5.05,0,0,0-1.4-1.61,6.22,6.22,0,0,0-2-1,7.83,7.83,0,0,0-2.31-.34,7.78,7.78,0,0,0-2.31.34,6.27,6.27,0,0,0-2,1,4.9,4.9,0,0,0-1.39,1.61,4.51,4.51,0,0,0-.53,2.23,4.52,4.52,0,0,0,.53,2.24A4.9,4.9,0,0,0,3424.56-402.86Zm1.74-5.82a3.5,3.5,0,0,1,2.53-.81,4.5,4.5,0,0,1,1.51.22,3,3,0,0,1,1.06.6,2.59,2.59,0,0,1,.63.89,2.8,2.8,0,0,1,.21,1.07,2.72,2.72,0,0,1-.21,1.07,2.41,2.41,0,0,1-.63.89,3,3,0,0,1-1.06.61,4.5,4.5,0,0,1-1.51.22,3.5,3.5,0,0,1-2.53-.81,2.66,2.66,0,0,1-.82-2A2.66,2.66,0,0,1,3426.3-408.68Z" transform="translate(-3242.53 422.21)"/><circle cx="55.37" cy="22.5" r="7.94" style="fill:none"/><path d="M3297.9-422.21a22.43,22.43,0,0,0-16,6.7,23.08,23.08,0,0,1,6.25,15.8,23.09,23.09,0,0,1-6.25,15.81,22.43,22.43,0,0,0,16,6.69,22.5,22.5,0,0,0,22.5-22.5A22.5,22.5,0,0,0,3297.9-422.21Zm0,30.45a7.94,7.94,0,0,1-7.94-7.95,7.94,7.94,0,0,1,7.94-7.94,7.94,7.94,0,0,1,7.94,7.94A7.94,7.94,0,0,1,3297.9-391.76Z" transform="translate(-3242.53 422.21)" style="fill:#1765ad"/><path d="M3277.7-387a19.13,19.13,0,0,0,4.83-12.72,19.12,19.12,0,0,0-4.83-12.71,19.74,19.74,0,0,0-2.39-2.27,25.48,25.48,0,0,0-4.85,15,25.49,25.49,0,0,0,4.85,15A19.74,19.74,0,0,0,3277.7-387Z" transform="translate(-3242.53 422.21)" style="fill:#36ade8"/><path d="M3280.38-414.54a21.79,21.79,0,0,0-16-7,21.86,21.86,0,0,0-21.84,21.83,21.86,21.86,0,0,0,21.84,21.84,21.79,21.79,0,0,0,16-7,21.78,21.78,0,0,0,5.83-14.84A21.77,21.77,0,0,0,3280.38-414.54Zm4.08,14.83a20,20,0,0,1-5.24,13.52,20.13,20.13,0,0,1-14.85,6.57,20.11,20.11,0,0,1-20.09-20.09,20.11,20.11,0,0,1,20.09-20.08,20.13,20.13,0,0,1,14.85,6.57A20,20,0,0,1,3284.46-399.71Z" transform="translate(-3242.53 422.21)" style="fill:#ff4545"/></svg>