<svg xmlns="http://www.w3.org/2000/svg" viewBox="0 0 214.61 130"><title>symbol-research-arum-01</title><circle cx="152.34" cy="65" r="21.76" style="fill:none"/><path d="M1040,1166.24a61.48,61.48,0,0,0-43.88,18.35,63.32,63.32,0,0,1,0,86.62,61.66,61.66,0,1,0,43.88-105Zm0,83.42a21.76,21.76,0,1,1,21.76-21.76A21.77,21.77,0,0,1,1040,1249.66Z" transform="translate(-887.63 -1162.9)" style="fill:#1765ad"/><path d="M984.62,1262.74a52.46,52.46,0,0,0,0-69.68,53,53,0,0,0-6.57-6.22,70.16,70.16,0,0,0,0,82.12A53,53,0,0,0,984.62,1262.74Z" transform="translate(-887.63 -1162.9)" style="fill:#36ade8"/><path d="M992,1187.26a59.71,59.71,0,1,0,16,40.64A59.7,59.7,0,0,0,992,1187.26Zm11.18,40.64a55.13,55.13,0,1,1-14.37-37A54.87,54.87,0,0,1,1003.14,1227.9Z" transform="translate(-887.63 -1162.9)" style="fill:#ff4545"/><rect width="214.61" height="130" style="fill:none"/></svg>